<svg version="1.1" width="2880" height="500" preserveAspectRatio="none" viewBox="0 0 2880 500"><g mask="url(&quot;#SvgjsMask1070&quot;)" fill="none"><rect width="2880" height="500" x="0" y="0" fill="url(&quot;#SvgjsLinearGradient1071&quot;)"></rect><path d="M60 500L560 0L705.5 0L205.5 500z" fill="url(&quot;#SvgjsLinearGradient1072&quot;)"></path><path d="M550.2 500L1050.2 0L1230.2 0L730.2 500z" fill="url(&quot;#SvgjsLinearGradient1072&quot;)"></path><path d="M951.4000000000001 500L1451.4 0L2033.4 0L1533.4 500z" fill="url(&quot;#SvgjsLinearGradient1072&quot;)"></path><path d="M1455.6000000000001 500L1955.6000000000001 0L2354.6000000000004 0L1854.6000000000001 500z" fill="url(&quot;#SvgjsLinearGradient1072&quot;)"></path><path d="M2866 500L2366 0L1989.5 0L2489.5 500z" fill="url(&quot;#SvgjsLinearGradient1073&quot;)"></path><path d="M2377.8 500L1877.8000000000002 0L1210.3000000000002 0L1710.3000000000002 500z" fill="url(&quot;#SvgjsLinearGradient1073&quot;)"></path><path d="M1855.6 500L1355.6 0L1147.1 0L1647.1 500z" fill="url(&quot;#SvgjsLinearGradient1073&quot;)"></path><path d="M1374.3999999999999 500L874.3999999999999 0L415.39999999999986 0L915.3999999999999 500z" fill="url(&quot;#SvgjsLinearGradient1073&quot;)"></path><path d="M2554.877583973496 500L2880 174.87758397349592L2880 500z" fill="url(&quot;#SvgjsLinearGradient1072&quot;)"></path><path d="M0 500L325.1224160265041 500L 0 174.87758397349592z" fill="url(&quot;#SvgjsLinearGradient1073&quot;)"></path></g><defs><mask id="SvgjsMask1070"><rect width="2880" height="500" fill="#ffffff"></rect></mask><linearGradient x1="20.66%" y1="-119%" x2="79.34%" y2="219%" gradientUnits="userSpaceOnUse" id="SvgjsLinearGradient1071"><stop stop-color="#0e2a47" offset="0"></stop><stop stop-color="rgba(158, 0, 0, 1)" offset="1"></stop></linearGradient><linearGradient x1="0%" y1="100%" x2="100%" y2="0%" id="SvgjsLinearGradient1072"><stop stop-color="rgba(15, 70, 185, 0.2)" offset="0"></stop><stop stop-opacity="0" stop-color="rgba(15, 70, 185, 0.2)" offset="0.66"></stop></linearGradient><linearGradient x1="100%" y1="100%" x2="0%" y2="0%" id="SvgjsLinearGradient1073"><stop stop-color="rgba(15, 70, 185, 0.2)" offset="0"></stop><stop stop-opacity="0" stop-color="rgba(15, 70, 185, 0.2)" offset="0.66"></stop></linearGradient></defs></svg>
